<?xml version="1.0" encoding="UTF-8"?>
<svg width="204mm" height="118.46mm" version="1.1" viewBox="0 0 204 118.46" xml:space="preserve" xmlns="http://www.w3.org/2000/svg"><g transform="translate(-17.879 -25.406)"><g transform="matrix(1.081 0 0 1.081 .95506 -1.5631)"><g transform="matrix(1.0981 0 0 1.0981 -5.2932 2.2107)"><path d="m43.596 72.648c-10.934 0.29385-20.498 8.2169-22.473 19.416-0.01275 0.07229-0.02505 0.14455-0.03711 0.2168-0.01203 0.07225-0.02376 0.14428-0.03516 0.2168-2.0168 12.839 6.7313 24.846 19.57 26.863 2.9628 0.46541 8.7065-0.14592 15.357-1.4512 6.651-1.3052 14.299-3.255 21.523-5.2734 11.035-3.0829 19.393-5.7835 23.293-7.0684-3.2726-2.4806-10.304-7.7464-19.742-14.242-6.1795-4.2528-12.78-8.5787-18.648-11.971-5.868-3.3921-11.103-5.8327-14.057-6.3535-1.5999-0.2821-3.1899-0.39549-4.752-0.35352z" color="#000000" fill="#00d99b" fill-rule="evenodd"/><circle cx="44.268" cy="96.146" r="9.7184" fill="#007554" stroke="#fff" stroke-width="2.5"/><path d="m50.254 41.61c-8.3742 7.0268-10.618 18.612-6.1488 28.041 1.5711-0.0088 3.1633 0.11469 4.7645 0.39703 3.8451 0.678 9.0567 3.254 15.037 6.7109 5.9802 3.4569 12.629 7.8139 18.847 12.094 8.4409 5.8091 15.806 11.27 19.852 14.313-0.91253-4.0038-2.9125-12.557-5.9675-23.6-2.0001-7.2299-4.2774-14.786-6.5922-21.156-2.3148-6.3703-4.7564-11.606-6.6842-13.903-8.354-9.9559-23.152-11.251-33.108-2.8969z" color="#000000" fill="#fdbb2d" fill-rule="evenodd"/><circle cx="65.36" cy="59.613" r="9.7184" fill="#c08402" stroke="#fff" stroke-width="2.5"/><path d="m105 21.684c-10.932 2e-6 -20.097 7.4326-22.735 17.528 1.2092 1.0031 2.3495 2.1212 3.3946 3.3667 2.5097 2.991 4.8462 8.3142 7.2052 14.806 2.359 6.4921 4.6514 14.103 6.6642 21.379 2.7321 9.8757 4.8634 18.793 6.0069 23.725 1.8746-3.6537 5.8402-11.491 10.598-21.914 3.1151-6.8241 6.2273-14.076 8.5488-20.444 2.3216-6.3678 3.8163-11.948 3.8163-14.947 0-12.996-10.503-23.5-23.5-23.5z" color="#000000" fill="#00d99b" fill-rule="evenodd"/><circle cx="105" cy="45.185" r="9.7184" fill="#007554" stroke="#fff" stroke-width="2.5"/><path d="m159.75 41.61c-8.3742-7.0268-20.173-7.2247-28.683-1.1861 0.28151 1.5457 0.43635 3.1351 0.43635 4.7611 0 3.9044-1.6318 9.4842-3.9978 15.974-2.3659 6.4896-5.5022 13.794-8.6371 20.661-4.2551 9.3214-8.3546 17.523-10.649 22.036 3.7846-1.5939 11.86-5.0487 22.205-9.975 6.7727-3.2252 13.818-6.7799 19.69-10.166 5.8716-3.3858 10.603-6.6995 12.531-8.9969 8.354-9.9559 7.0597-24.754-2.8962-33.108z" color="#000000" fill="#00d99b" fill-rule="evenodd"/><circle cx="144.64" cy="59.613" r="9.7184" fill="#007554" stroke="#fff" stroke-width="2.5"/><path d="m188.88 92.065c-1.8983-10.766-10.81-18.501-21.21-19.345-0.77791 1.365-1.681 2.6821-2.7261 3.9277-2.5097 2.991-7.3464 6.2164-13.33 9.6669-5.9838 3.4505-13.081 7.0297-19.897 10.275-9.2513 4.4055-17.663 8.053-22.322 10.035 3.9237 1.2116 12.331 3.7561 23.422 6.6319 7.2613 1.8828 14.943 3.6884 21.618 4.8689 6.6742 1.1805 12.429 1.6836 15.383 1.1628 12.799-2.2568 21.319-14.425 19.063-27.224z" color="#000000" fill="#00d99b" fill-rule="evenodd"/><circle cx="165.73" cy="96.145" r="9.7184" fill="#007554" stroke="#fff" stroke-width="2.5"/></g></g></g></svg>
